<svg xmlns="http://www.w3.org/2000/svg" viewBox="0 0 411.84 250.44"><defs><style>.cls-1{fill:#004b85;}.cls-2{fill:#4b90cd;}.cls-3{fill:#f3a93c;}</style></defs><g id="Capa_2" data-name="Capa 2"><g id="Capa_1-2" data-name="Capa 1"><path class="cls-1" d="M5.28,236.86V92.67a8,8,0,0,1,8-8H48.42a8,8,0,0,1,8,8V236.86a8,8,0,0,1-8,8H13.3A8,8,0,0,1,5.28,236.86Z"/><path class="cls-1" d="M184.58,151l58.12,89a3.13,3.13,0,0,1-2.62,4.85H189.72a3.13,3.13,0,0,1-2.71-1.54l-47.48-80.75h-.62v79.16a3.13,3.13,0,0,1-3.14,3.13H90.88a3.14,3.14,0,0,1-3.14-3.13v-225A16.79,16.79,0,0,1,104.53,0h31.24a3.13,3.13,0,0,1,3.14,3.14V135.77h.62L186.05,75a3.17,3.17,0,0,1,2.5-1.23H240.9A3.14,3.14,0,0,1,243.28,79l-58.45,68.25A3.13,3.13,0,0,0,184.58,151Z"/><path class="cls-2" d="M407.47,174.92H287a3.7,3.7,0,0,0-3.61,4.6c4.78,17.54,20.63,27.76,39.1,27.76,13.26,0,22-5.07,30-14.66a3.74,3.74,0,0,1,2.86-1.37h44.83a3.73,3.73,0,0,1,3.33,5.38c-14.95,30.24-42.4,52.11-77,53.71-48.5,2.25-90.81-35.09-94.44-83.51C228.16,114.23,268.93,68,321.53,68c52.4,0,90.31,41.93,90.31,93.4a71,71,0,0,1-.68,10.33A3.74,3.74,0,0,1,407.47,174.92Zm-85.63-63.81c-16.75,0-31.72,8.84-37.38,24.23a3.73,3.73,0,0,0,3.48,5h67.79a3.73,3.73,0,0,0,3.48-5C353.55,120,338.58,111.11,321.84,111.11Z"/><path class="cls-2" d="M398,82.53a19.17,19.17,0,0,0,9.72-25.39h0a19.18,19.18,0,0,0-26.57-9L366.37,56a7.58,7.58,0,0,0,.11,13.43,100.4,100.4,0,0,1,20.26,13.4A7.54,7.54,0,0,0,394.68,84Z"/><path class="cls-3" d="M30.86,0a30.86,30.86,0,0,0-2.62,61.61V75.43a2.63,2.63,0,0,0,1.55,2.4,2.66,2.66,0,0,0,1.07.22,2.63,2.63,0,0,0,1.75-.67c1-.86,23.75-21.47,28.07-38.58.09-.32.16-.64.23-1,0,0,0-.11,0-.14s0-.07,0-.1A30.84,30.84,0,0,0,30.86,0Z"/></g></g></svg>